<svg width="14" height="15" viewBox="0 0 14 15" fill="none" xmlns="http://www.w3.org/2000/svg">
<path d="M13.9997 5.45824C13.9997 2.72416 11.7754 0.499909 9.04136 0.499909C6.30728 0.499909 4.08303 2.72416 4.08303 5.45824C4.08303 8.19233 6.30728 10.4166 9.04136 10.4166C11.7754 10.4166 13.9997 8.19233 13.9997 5.45824ZM9.04136 9.24991C6.9507 9.24991 5.2497 7.54891 5.2497 5.45824C5.2497 3.36758 6.9507 1.66658 9.04136 1.66658C11.132 1.66658 12.833 3.36758 12.833 5.45824C12.833 7.54891 11.132 9.24991 9.04136 9.24991ZM8.58111 11.6947C8.84186 11.8837 8.9002 12.2482 8.7112 12.509C7.80761 13.7556 6.34986 14.4999 4.8122 14.4999C2.15861 14.4999 -0.000303556 12.341 -0.000303556 9.68741C-0.000303556 8.14974 0.74403 6.69258 1.99061 5.78841C2.25195 5.59941 2.61653 5.65716 2.80495 5.91849C2.99395 6.17924 2.9362 6.54383 2.67486 6.73283C1.72986 7.41766 1.16578 8.52191 1.16578 9.68683C1.16578 11.697 2.80145 13.3327 4.81161 13.3327C5.97711 13.3327 7.08136 12.7686 7.7662 11.8242C7.95461 11.5628 8.31978 11.5045 8.58053 11.6941L8.58111 11.6947ZM10.9693 4.43741C10.9693 3.62599 10.3159 2.96683 9.50745 2.95283V2.67633C9.50745 2.41849 9.29861 2.20966 9.04078 2.20966C8.78295 2.20966 8.57411 2.41849 8.57411 2.67633V2.94991H8.19378C7.77553 2.94991 7.43545 3.28999 7.43545 3.70824V7.20824C7.43545 7.62649 7.77553 7.96658 8.19378 7.96658H8.57411V8.22908C8.57411 8.48691 8.78295 8.69574 9.04078 8.69574C9.29861 8.69574 9.50745 8.48691 9.50745 8.22908V7.96658H9.59086C10.411 7.96658 11.0784 7.29924 11.0784 6.47908C11.0784 6.05499 10.9004 5.67233 10.6146 5.40049C10.8357 5.14091 10.9693 4.80433 10.9693 4.43741ZM8.36878 3.88324H9.48178C9.78745 3.88324 10.0359 4.13174 10.0359 4.43741C10.0359 4.74308 9.78745 4.99158 9.48178 4.99158H8.36878V3.88324ZM9.59028 7.03324H8.36878V5.92491H9.59028C9.89595 5.92491 10.1444 6.17341 10.1444 6.47908C10.1444 6.78474 9.89595 7.03324 9.59028 7.03324ZM13.6789 12.9395L12.3815 14.3167C12.2672 14.4381 12.112 14.4999 11.9569 14.4999C11.8134 14.4999 11.6693 14.4474 11.5567 14.3412C11.3222 14.1207 11.3117 13.7515 11.5322 13.5164L12.2544 12.7499H10.4979C10.1759 12.7499 9.91461 12.4886 9.91461 12.1666C9.91461 11.8446 10.1759 11.5832 10.4979 11.5832H12.2544L11.5316 10.8167C11.3111 10.5822 11.3216 10.213 11.5561 9.99191C11.79 9.77141 12.1593 9.78191 12.3809 10.0164L13.6899 11.4059C14.1035 11.8195 14.1035 12.5131 13.6777 12.9395H13.6789ZM0.307696 3.59391C-0.105887 3.17974 -0.105887 2.48616 0.319946 2.06033L1.6167 0.683076C1.83778 0.447993 2.20703 0.437493 2.44153 0.658576C2.67603 0.879659 2.68711 1.24891 2.46603 1.48341L1.74386 2.24991H3.4997C3.8217 2.24991 4.08303 2.51124 4.08303 2.83324C4.08303 3.15524 3.8217 3.41658 3.4997 3.41658H1.74328L2.46603 4.18308C2.68653 4.41758 2.67603 4.78683 2.44153 5.00791C2.32895 5.11408 2.18545 5.16658 2.04136 5.16658C1.8862 5.16658 1.73161 5.10533 1.6167 4.98341L0.307696 3.59391Z" fill="#9DC21B"/>
</svg>
