<svg width="14" height="14" viewBox="0 0 14 14" fill="none" xmlns="http://www.w3.org/2000/svg">
<path d="M7 0C5.61553 0 4.26216 0.410543 3.11101 1.17971C1.95987 1.94888 1.06266 3.04213 0.532846 4.32122C0.003033 5.6003 -0.13559 7.00777 0.134506 8.36563C0.404603 9.7235 1.07129 10.9708 2.05026 11.9497C3.02922 12.9287 4.2765 13.5954 5.63437 13.8655C6.99224 14.1356 8.3997 13.997 9.67879 13.4672C10.9579 12.9373 12.0511 12.0401 12.8203 10.889C13.5895 9.73785 14 8.38447 14 7C13.998 5.1441 13.2599 3.36479 11.9475 2.05247C10.6352 0.74015 8.8559 0.0020073 7 0ZM12.0441 4.08333H10.1652C9.74457 3.10857 9.19076 2.19688 8.51959 1.37433C10.005 1.77854 11.2714 2.75186 12.0441 4.08333ZM9.625 7C9.62021 7.59391 9.52662 8.18377 9.34734 8.75H4.65267C4.47338 8.18377 4.37979 7.59391 4.375 7C4.37979 6.40609 4.47338 5.81623 4.65267 5.25H9.34734C9.52662 5.81623 9.62021 6.40609 9.625 7ZM5.1205 9.91667H8.8795C8.38439 10.8942 7.75143 11.7955 7 12.593C6.2483 11.7957 5.61531 10.8944 5.1205 9.91667ZM5.1205 4.08333C5.61562 3.10583 6.24858 2.20451 7 1.407C7.7517 2.20428 8.3847 3.10564 8.8795 4.08333H5.1205ZM5.48334 1.37433C4.81114 2.19671 4.25634 3.10841 3.83484 4.08333H1.95592C2.72934 2.75125 3.9968 1.77786 5.48334 1.37433ZM1.43559 5.25H3.44167C3.29045 5.82117 3.21205 6.40916 3.20834 7C3.21205 7.59084 3.29045 8.17883 3.44167 8.75H1.43559C1.07704 7.61088 1.07704 6.38912 1.43559 5.25ZM1.95592 9.91667H3.83484C4.25634 10.8916 4.81114 11.8033 5.48334 12.6257C3.9968 12.2221 2.72934 11.2487 1.95592 9.91667ZM8.51959 12.6257C9.19076 11.8031 9.74457 10.8914 10.1652 9.91667H12.0441C11.2714 11.2481 10.005 12.2215 8.51959 12.6257ZM12.5644 8.75H10.5583C10.7096 8.17883 10.788 7.59084 10.7917 7C10.788 6.40916 10.7096 5.82117 10.5583 5.25H12.5633C12.9218 6.38912 12.9218 7.61088 12.5633 8.75H12.5644Z" fill="#9DC21B"/>
</svg>
