<svg width="290" height="249" viewBox="0 0 290 249" fill="none" xmlns="http://www.w3.org/2000/svg">
<rect x="0.5" y="0.5" width="289" height="248" rx="17.5" stroke="#242424"/>
<path d="M24.2756 99.8182V110H23.3459V100.793H23.2862L20.8999 102.379V101.414L23.3061 99.8182H24.2756ZM30.4354 112.173V109.165H31.0966C31.2623 108.979 31.4065 108.779 31.5291 108.563C31.6518 108.348 31.7578 108.103 31.8473 107.827C31.9401 107.549 32.018 107.226 32.081 106.858C32.1439 106.487 32.197 106.054 32.2401 105.56L32.5185 102.364H37.0376V109.165H38.1712V112.173H37.2862V110H31.3253V112.173H30.4354ZM32.1158 109.165H36.1527V103.199H33.3438L33.1151 105.56C33.0355 106.362 32.9228 107.062 32.777 107.658C32.6312 108.255 32.4107 108.757 32.1158 109.165ZM42.9451 110.159C42.2325 110.159 41.6161 109.993 41.0957 109.662C40.5753 109.327 40.1726 108.865 39.8876 108.275C39.6059 107.682 39.465 106.999 39.465 106.227C39.465 105.458 39.6059 104.775 39.8876 104.178C40.1726 103.578 40.5654 103.109 41.0659 102.771C41.5697 102.43 42.1513 102.259 42.8109 102.259C43.2252 102.259 43.6246 102.335 44.0091 102.488C44.3935 102.637 44.7382 102.867 45.0431 103.179C45.3514 103.487 45.595 103.877 45.774 104.347C45.9529 104.815 46.0424 105.368 46.0424 106.008V106.445H40.0765V105.665H45.1376C45.1376 105.174 45.0382 104.733 44.8393 104.342C44.6438 103.948 44.3703 103.636 44.019 103.408C43.671 103.179 43.2683 103.065 42.8109 103.065C42.327 103.065 41.9011 103.194 41.5332 103.452C41.1653 103.711 40.877 104.052 40.6681 104.477C40.4627 104.901 40.3583 105.365 40.3549 105.869V106.336C40.3549 106.942 40.4593 107.473 40.6681 107.927C40.8803 108.378 41.1802 108.727 41.568 108.976C41.9558 109.224 42.4148 109.349 42.9451 109.349C43.3064 109.349 43.6229 109.292 43.8947 109.18C44.1698 109.067 44.4002 108.916 44.5858 108.727C44.7747 108.535 44.9172 108.325 45.0133 108.096L45.8535 108.369C45.7375 108.691 45.5469 108.987 45.2818 109.259C45.0199 109.531 44.6918 109.75 44.2974 109.915C43.9063 110.078 43.4556 110.159 42.9451 110.159ZM53.1481 105.769V106.604H48.6587V105.769H53.1481ZM48.8775 102.364V110H47.9925V102.364H48.8775ZM53.7994 102.364V110H52.9144V102.364H53.7994ZM56.8904 105.312H59.1227C59.9811 105.312 60.644 105.521 61.1113 105.938C61.5787 106.356 61.8123 106.921 61.8123 107.634C61.8123 108.107 61.7079 108.522 61.4991 108.876C61.2903 109.231 60.9854 109.508 60.5843 109.707C60.1833 109.902 59.6961 110 59.1227 110H56.1547V102.364H57.0396V109.165H59.1227C59.6629 109.165 60.0988 109.036 60.4302 108.777C60.7617 108.518 60.9274 108.151 60.9274 107.673C60.9274 107.186 60.7617 106.81 60.4302 106.545C60.0988 106.28 59.6629 106.147 59.1227 106.147H56.8904V105.312Z" fill="#757575"/>
<path d="M24.4396 132.139C23.8132 132.139 23.2531 132.027 22.7592 131.801C22.2654 131.572 21.8743 131.256 21.5859 130.852C21.2976 130.447 21.1451 129.982 21.1286 129.455H22.0682C22.0848 129.826 22.1991 130.151 22.4112 130.429C22.6233 130.704 22.9051 130.92 23.2564 131.075C23.6077 131.228 23.9988 131.304 24.4297 131.304C24.9003 131.304 25.3146 131.216 25.6726 131.04C26.0339 130.865 26.3156 130.625 26.5178 130.32C26.7232 130.011 26.826 129.663 26.826 129.276C26.826 128.865 26.7216 128.502 26.5128 128.187C26.304 127.872 26.004 127.627 25.6129 127.451C25.2251 127.275 24.7611 127.188 24.2209 127.188H23.6243V126.352H24.2209C24.6617 126.352 25.0511 126.273 25.3892 126.114C25.7306 125.951 25.9991 125.724 26.1946 125.433C26.3902 125.141 26.4879 124.798 26.4879 124.403C26.4879 124.029 26.4034 123.699 26.2344 123.414C26.0653 123.129 25.8267 122.905 25.5185 122.743C25.2135 122.58 24.8572 122.499 24.4496 122.499C24.0552 122.499 23.6939 122.576 23.3658 122.728C23.0376 122.88 22.7725 123.096 22.5703 123.374C22.3714 123.653 22.2654 123.982 22.2521 124.364H21.3523C21.3655 123.833 21.5114 123.368 21.7898 122.967C22.0715 122.562 22.4444 122.247 22.9084 122.022C23.3757 121.793 23.8928 121.679 24.4595 121.679C25.0594 121.679 25.5781 121.802 26.0156 122.047C26.4531 122.292 26.7912 122.619 27.0298 123.026C27.2718 123.431 27.3928 123.876 27.3928 124.364C27.3928 124.944 27.2353 125.441 26.9205 125.855C26.6056 126.266 26.1813 126.551 25.6477 126.71V126.775C26.2973 126.904 26.8078 127.192 27.179 127.64C27.5535 128.084 27.7408 128.629 27.7408 129.276C27.7408 129.819 27.5982 130.308 27.3132 130.742C27.0282 131.173 26.6371 131.514 26.1399 131.766C25.6461 132.015 25.0793 132.139 24.4396 132.139ZM33.0057 134.173V131.165H33.6669C33.8326 130.979 33.9768 130.779 34.0994 130.563C34.2221 130.348 34.3281 130.103 34.4176 129.827C34.5104 129.549 34.5883 129.226 34.6513 128.858C34.7143 128.487 34.7673 128.054 34.8104 127.56L35.0888 124.364H39.608V131.165H40.7415V134.173H39.8565V132H33.8956V134.173H33.0057ZM34.6861 131.165H38.723V125.199H35.9141L35.6854 127.56C35.6058 128.362 35.4931 129.062 35.3473 129.658C35.2015 130.255 34.9811 130.757 34.6861 131.165ZM47.5836 127.769V128.604H43.0943V127.769H47.5836ZM43.313 124.364V132H42.4281V124.364H43.313ZM48.2349 124.364V132H47.35V124.364H48.2349ZM55.1839 132V125.184H53.081C52.5341 125.187 52.1181 125.302 51.8331 125.527C51.5514 125.752 51.4105 126.089 51.4105 126.536C51.4105 126.984 51.5447 127.32 51.8132 127.545C52.0817 127.768 52.4728 127.879 52.9865 127.879H55.4325V128.714H52.9865C52.4595 128.714 52.0121 128.629 51.6442 128.46C51.2796 128.291 51.0012 128.044 50.8089 127.719C50.6167 127.395 50.5206 127 50.5206 126.536C50.5206 126.069 50.6184 125.674 50.8139 125.353C51.0128 125.028 51.3028 124.783 51.6839 124.617C52.0684 124.448 52.5341 124.364 53.081 124.364H56.0291V132H55.1839ZM50.0384 132L52.2358 128.202H53.2053L51.0078 132H50.0384Z" fill="#757575"/>
<path d="M21.4268 154L26.0653 144.718V144.653H20.7209V143.818H27.0398V144.693L22.4062 154H21.4268ZM32.0897 156.173V153.165H32.7509C32.9166 152.979 33.0608 152.779 33.1834 152.563C33.306 152.348 33.4121 152.103 33.5016 151.827C33.5944 151.549 33.6723 151.226 33.7353 150.858C33.7982 150.487 33.8513 150.054 33.8944 149.56L34.1728 146.364H38.6919V153.165H39.8255V156.173H38.9405V154H32.9796V156.173H32.0897ZM33.7701 153.165H37.807V147.199H34.998L34.7694 149.56C34.6898 150.362 34.5771 151.062 34.4313 151.658C34.2855 152.255 34.065 152.757 33.7701 153.165ZM46.6676 149.769V150.604H42.1783V149.769H46.6676ZM42.397 146.364V154H41.5121V146.364H42.397ZM47.3189 146.364V154H46.4339V146.364H47.3189ZM52.7615 154.159C52.0489 154.159 51.4325 153.993 50.9121 153.662C50.3917 153.327 49.9891 152.865 49.704 152.275C49.4223 151.682 49.2814 150.999 49.2814 150.227C49.2814 149.458 49.4223 148.775 49.704 148.178C49.9891 147.578 50.3818 147.109 50.8823 146.771C51.3861 146.43 51.9677 146.259 52.6273 146.259C53.0416 146.259 53.441 146.335 53.8255 146.488C54.2099 146.637 54.5546 146.867 54.8596 147.179C55.1678 147.487 55.4114 147.877 55.5904 148.347C55.7694 148.815 55.8588 149.368 55.8588 150.008V150.445H49.8929V149.665H54.954C54.954 149.174 54.8546 148.733 54.6557 148.342C54.4602 147.948 54.1867 147.636 53.8354 147.408C53.4874 147.179 53.0847 147.065 52.6273 147.065C52.1434 147.065 51.7175 147.194 51.3496 147.452C50.9817 147.711 50.6934 148.052 50.4846 148.477C50.2791 148.901 50.1747 149.365 50.1713 149.869V150.336C50.1713 150.942 50.2757 151.473 50.4846 151.927C50.6967 152.378 50.9966 152.727 51.3844 152.976C51.7722 153.224 52.2312 153.349 52.7615 153.349C53.1228 153.349 53.4393 153.292 53.7111 153.18C53.9862 153.067 54.2166 152.916 54.4022 152.727C54.5911 152.535 54.7336 152.325 54.8297 152.096L55.6699 152.369C55.5539 152.691 55.3633 152.987 55.0982 153.259C54.8364 153.531 54.5082 153.75 54.1138 153.915C53.7227 154.078 53.272 154.159 52.7615 154.159ZM58.6939 152.742L62.7259 146.364H63.7848V154H62.8999V147.621L58.8828 154H57.8089V146.364H58.6939V152.742ZM61.7116 143.818H62.5469C62.5469 144.292 62.3894 144.677 62.0746 144.972C61.763 145.267 61.3371 145.414 60.7969 145.414C60.2633 145.414 59.8407 145.267 59.5291 144.972C59.2176 144.677 59.0618 144.292 59.0618 143.818H59.897C59.897 144.077 59.9666 144.295 60.1058 144.474C60.2483 144.65 60.4787 144.738 60.7969 144.738C61.1151 144.738 61.3471 144.65 61.4929 144.474C61.6387 144.295 61.7116 144.077 61.7116 143.818Z" fill="#757575"/>
<path d="M24.4396 176.139C23.8132 176.139 23.2531 176.027 22.7592 175.801C22.2654 175.572 21.8743 175.256 21.5859 174.852C21.2976 174.447 21.1451 173.982 21.1286 173.455H22.0682C22.0848 173.826 22.1991 174.151 22.4112 174.429C22.6233 174.704 22.9051 174.92 23.2564 175.075C23.6077 175.228 23.9988 175.304 24.4297 175.304C24.9003 175.304 25.3146 175.216 25.6726 175.04C26.0339 174.865 26.3156 174.625 26.5178 174.32C26.7232 174.011 26.826 173.663 26.826 173.276C26.826 172.865 26.7216 172.502 26.5128 172.187C26.304 171.872 26.004 171.627 25.6129 171.451C25.2251 171.275 24.7611 171.188 24.2209 171.188H23.6243V170.352H24.2209C24.6617 170.352 25.0511 170.273 25.3892 170.114C25.7306 169.951 25.9991 169.724 26.1946 169.433C26.3902 169.141 26.4879 168.798 26.4879 168.403C26.4879 168.029 26.4034 167.699 26.2344 167.414C26.0653 167.129 25.8267 166.905 25.5185 166.743C25.2135 166.58 24.8572 166.499 24.4496 166.499C24.0552 166.499 23.6939 166.576 23.3658 166.728C23.0376 166.88 22.7725 167.096 22.5703 167.374C22.3714 167.653 22.2654 167.982 22.2521 168.364H21.3523C21.3655 167.833 21.5114 167.368 21.7898 166.967C22.0715 166.562 22.4444 166.247 22.9084 166.022C23.3757 165.793 23.8928 165.679 24.4595 165.679C25.0594 165.679 25.5781 165.802 26.0156 166.047C26.4531 166.292 26.7912 166.619 27.0298 167.026C27.2718 167.431 27.3928 167.876 27.3928 168.364C27.3928 168.944 27.2353 169.441 26.9205 169.855C26.6056 170.266 26.1813 170.551 25.6477 170.71V170.775C26.2973 170.904 26.8078 171.192 27.179 171.64C27.5535 172.084 27.7408 172.629 27.7408 173.276C27.7408 173.819 27.5982 174.308 27.3132 174.742C27.0282 175.173 26.6371 175.514 26.1399 175.766C25.6461 176.015 25.0793 176.139 24.4396 176.139ZM33.1001 176.139C32.3842 176.139 31.7727 175.934 31.2656 175.523C30.7618 175.108 30.3741 174.51 30.1023 173.728C29.8338 172.946 29.6996 172.006 29.6996 170.909C29.6996 169.815 29.8338 168.879 30.1023 168.1C30.3741 167.318 30.7635 166.72 31.2706 166.305C31.781 165.888 32.3909 165.679 33.1001 165.679C33.8094 165.679 34.4176 165.888 34.9247 166.305C35.4351 166.72 35.8246 167.318 36.093 168.1C36.3648 168.879 36.5007 169.815 36.5007 170.909C36.5007 172.006 36.3648 172.946 36.093 173.728C35.8246 174.51 35.4368 175.108 34.9297 175.523C34.4259 175.934 33.8161 176.139 33.1001 176.139ZM33.1001 175.304C33.8857 175.304 34.4988 174.921 34.9396 174.156C35.3804 173.387 35.6009 172.304 35.6009 170.909C35.6009 169.981 35.4998 169.189 35.2976 168.533C35.0987 167.873 34.812 167.369 34.4375 167.021C34.0663 166.673 33.6205 166.499 33.1001 166.499C32.3213 166.499 31.7098 166.887 31.2656 167.663C30.8215 168.435 30.5994 169.517 30.5994 170.909C30.5994 171.837 30.6989 172.629 30.8977 173.286C31.0999 173.942 31.3866 174.442 31.7578 174.787C32.1323 175.132 32.5798 175.304 33.1001 175.304ZM41.5916 178.173V175.165H42.2528C42.4186 174.979 42.5627 174.779 42.6854 174.563C42.808 174.348 42.9141 174.103 43.0036 173.827C43.0964 173.549 43.1742 173.226 43.2372 172.858C43.3002 172.487 43.3532 172.054 43.3963 171.56L43.6747 168.364H48.1939V175.165H49.3274V178.173H48.4425V176H42.4815V178.173H41.5916ZM43.272 175.165H47.3089V169.199H44.5L44.2713 171.56C44.1918 172.362 44.0791 173.062 43.9332 173.658C43.7874 174.255 43.567 174.757 43.272 175.165ZM56.1696 171.769V172.604H51.6802V171.769H56.1696ZM51.899 168.364V176H51.014V168.364H51.899ZM56.8208 168.364V176H55.9359V168.364H56.8208ZM62.2635 176.159C61.5509 176.159 60.9344 175.993 60.4141 175.662C59.8937 175.327 59.491 174.865 59.206 174.275C58.9242 173.682 58.7834 172.999 58.7834 172.227C58.7834 171.458 58.9242 170.775 59.206 170.178C59.491 169.578 59.8838 169.109 60.3842 168.771C60.888 168.43 61.4697 168.259 62.1293 168.259C62.5436 168.259 62.9429 168.335 63.3274 168.488C63.7119 168.637 64.0566 168.867 64.3615 169.179C64.6697 169.487 64.9134 169.877 65.0923 170.347C65.2713 170.815 65.3608 171.368 65.3608 172.008V172.445H59.3949V171.665H64.456C64.456 171.174 64.3565 170.733 64.1577 170.342C63.9621 169.948 63.6887 169.636 63.3374 169.408C62.9893 169.179 62.5866 169.065 62.1293 169.065C61.6454 169.065 61.2195 169.194 60.8516 169.452C60.4837 169.711 60.1953 170.052 59.9865 170.477C59.781 170.901 59.6766 171.365 59.6733 171.869V172.336C59.6733 172.942 59.7777 173.473 59.9865 173.927C60.1986 174.378 60.4986 174.727 60.8864 174.976C61.2741 175.224 61.7332 175.349 62.2635 175.349C62.6248 175.349 62.9413 175.292 63.2131 175.18C63.4882 175.067 63.7185 174.916 63.9041 174.727C64.093 174.535 64.2356 174.325 64.3317 174.096L65.1719 174.369C65.0559 174.691 64.8653 174.987 64.6001 175.259C64.3383 175.531 64.0102 175.75 63.6158 175.915C63.2247 176.078 62.7739 176.159 62.2635 176.159ZM68.1958 174.742L72.2278 168.364H73.2868V176H72.4018V169.621L68.3848 176H67.3109V168.364H68.1958V174.742ZM71.2136 165.818H72.0488C72.0488 166.292 71.8914 166.677 71.5765 166.972C71.265 167.267 70.8391 167.414 70.2988 167.414C69.7652 167.414 69.3426 167.267 69.0311 166.972C68.7195 166.677 68.5637 166.292 68.5637 165.818H69.399C69.399 166.077 69.4686 166.295 69.6078 166.474C69.7503 166.65 69.9806 166.738 70.2988 166.738C70.617 166.738 70.849 166.65 70.9949 166.474C71.1407 166.295 71.2136 166.077 71.2136 165.818Z" fill="#757575"/>
<path d="M229.569 111.273V98.5455H230.384V111.273H229.569ZM232.313 102.364C232.253 101.86 232.011 101.469 231.587 101.19C231.163 100.912 230.642 100.773 230.026 100.773C229.575 100.773 229.181 100.846 228.843 100.991C228.508 101.137 228.246 101.338 228.057 101.593C227.872 101.848 227.779 102.138 227.779 102.463C227.779 102.735 227.843 102.969 227.973 103.164C228.105 103.356 228.274 103.517 228.48 103.646C228.685 103.772 228.901 103.877 229.126 103.96C229.351 104.039 229.559 104.104 229.748 104.153L230.782 104.432C231.047 104.501 231.342 104.598 231.667 104.72C231.995 104.843 232.308 105.01 232.606 105.222C232.908 105.431 233.156 105.7 233.352 106.028C233.547 106.356 233.645 106.759 233.645 107.236C233.645 107.786 233.501 108.283 233.213 108.727C232.928 109.171 232.51 109.524 231.96 109.786C231.413 110.048 230.748 110.179 229.966 110.179C229.237 110.179 228.606 110.061 228.072 109.826C227.542 109.591 227.124 109.263 226.819 108.842C226.518 108.421 226.347 107.932 226.307 107.375H227.58C227.613 107.759 227.742 108.078 227.968 108.33C228.196 108.578 228.485 108.764 228.833 108.886C229.184 109.006 229.562 109.065 229.966 109.065C230.437 109.065 230.859 108.989 231.234 108.837C231.609 108.681 231.905 108.465 232.124 108.19C232.343 107.912 232.452 107.587 232.452 107.216C232.452 106.878 232.358 106.603 232.169 106.391C231.98 106.179 231.731 106.006 231.423 105.874C231.115 105.741 230.782 105.625 230.424 105.526L229.171 105.168C228.375 104.939 227.746 104.612 227.282 104.188C226.818 103.764 226.586 103.209 226.586 102.523C226.586 101.953 226.74 101.455 227.048 101.031C227.359 100.604 227.777 100.272 228.301 100.037C228.828 99.7983 229.416 99.679 230.066 99.679C230.722 99.679 231.305 99.7966 231.816 100.032C232.326 100.264 232.73 100.582 233.029 100.987C233.33 101.391 233.489 101.85 233.506 102.364H232.313ZM239.073 99.8182V110H237.84V101.111H237.78L235.295 102.761V101.509L237.84 99.8182H239.073ZM242.275 110.08C242.029 110.08 241.819 109.992 241.643 109.816C241.468 109.64 241.38 109.43 241.38 109.185C241.38 108.939 241.468 108.729 241.643 108.553C241.819 108.378 242.029 108.29 242.275 108.29C242.52 108.29 242.73 108.378 242.906 108.553C243.082 108.729 243.17 108.939 243.17 109.185C243.17 109.347 243.128 109.496 243.045 109.632C242.966 109.768 242.858 109.877 242.722 109.96C242.59 110.04 242.44 110.08 242.275 110.08ZM248.313 110.139C247.656 110.139 247.071 110.027 246.558 109.801C246.047 109.576 245.641 109.263 245.34 108.862C245.041 108.457 244.879 107.988 244.852 107.455H246.105C246.132 107.783 246.244 108.066 246.443 108.305C246.642 108.54 246.902 108.722 247.224 108.852C247.545 108.981 247.902 109.045 248.293 109.045C248.73 109.045 249.118 108.969 249.456 108.817C249.794 108.664 250.059 108.452 250.252 108.18C250.444 107.909 250.54 107.594 250.54 107.236C250.54 106.861 250.447 106.531 250.262 106.246C250.076 105.958 249.804 105.733 249.446 105.57C249.088 105.408 248.651 105.327 248.134 105.327H247.318V104.233H248.134C248.538 104.233 248.893 104.16 249.198 104.014C249.506 103.868 249.746 103.663 249.919 103.398C250.094 103.133 250.182 102.821 250.182 102.463C250.182 102.118 250.106 101.818 249.953 101.563C249.801 101.308 249.585 101.109 249.307 100.967C249.032 100.824 248.707 100.753 248.333 100.753C247.981 100.753 247.65 100.817 247.338 100.947C247.03 101.073 246.778 101.257 246.583 101.499C246.387 101.737 246.281 102.026 246.264 102.364H245.071C245.091 101.83 245.252 101.363 245.553 100.962C245.855 100.557 246.249 100.242 246.737 100.017C247.227 99.7917 247.766 99.679 248.352 99.679C248.982 99.679 249.522 99.8066 249.973 100.062C250.424 100.314 250.77 100.647 251.012 101.061C251.254 101.475 251.375 101.923 251.375 102.403C251.375 102.977 251.224 103.466 250.923 103.87C250.624 104.274 250.218 104.554 249.705 104.71V104.79C250.348 104.896 250.85 105.169 251.211 105.61C251.572 106.048 251.753 106.589 251.753 107.236C251.753 107.789 251.602 108.286 251.301 108.727C251.002 109.165 250.595 109.509 250.078 109.761C249.561 110.013 248.972 110.139 248.313 110.139ZM256.968 110.139C256.385 110.139 255.86 110.023 255.392 109.791C254.925 109.559 254.55 109.241 254.269 108.837C253.987 108.432 253.833 107.972 253.806 107.455H254.999C255.046 107.915 255.255 108.296 255.626 108.598C256 108.896 256.448 109.045 256.968 109.045C257.386 109.045 257.757 108.948 258.082 108.752C258.41 108.557 258.667 108.288 258.852 107.947C259.041 107.602 259.136 107.213 259.136 106.778C259.136 106.334 259.038 105.938 258.843 105.59C258.65 105.239 258.385 104.962 258.047 104.76C257.709 104.558 257.323 104.455 256.889 104.452C256.577 104.448 256.257 104.496 255.929 104.596C255.601 104.692 255.331 104.816 255.119 104.969L253.965 104.83L254.582 99.8182H259.872V100.912H255.616L255.258 103.915H255.318C255.526 103.749 255.788 103.612 256.103 103.502C256.418 103.393 256.746 103.338 257.088 103.338C257.711 103.338 258.266 103.487 258.753 103.786C259.244 104.08 259.628 104.485 259.906 104.999C260.188 105.512 260.329 106.099 260.329 106.759C260.329 107.408 260.183 107.988 259.892 108.499C259.603 109.006 259.205 109.407 258.698 109.702C258.191 109.993 257.615 110.139 256.968 110.139ZM265.625 110.139C264.876 110.139 264.238 109.935 263.711 109.528C263.184 109.117 262.781 108.522 262.503 107.743C262.224 106.961 262.085 106.016 262.085 104.909C262.085 103.809 262.224 102.869 262.503 102.09C262.785 101.308 263.189 100.711 263.716 100.3C264.246 99.8861 264.883 99.679 265.625 99.679C266.367 99.679 267.002 99.8861 267.529 100.3C268.059 100.711 268.464 101.308 268.742 102.09C269.024 102.869 269.165 103.809 269.165 104.909C269.165 106.016 269.026 106.961 268.747 107.743C268.469 108.522 268.066 109.117 267.539 109.528C267.012 109.935 266.374 110.139 265.625 110.139ZM265.625 109.045C266.367 109.045 266.944 108.687 267.355 107.972C267.766 107.256 267.972 106.235 267.972 104.909C267.972 104.027 267.877 103.277 267.688 102.657C267.503 102.037 267.234 101.565 266.883 101.24C266.535 100.915 266.116 100.753 265.625 100.753C264.889 100.753 264.314 101.116 263.9 101.842C263.486 102.564 263.278 103.587 263.278 104.909C263.278 105.791 263.371 106.54 263.557 107.156C263.742 107.773 264.009 108.242 264.357 108.563C264.709 108.885 265.131 109.045 265.625 109.045Z" fill="white"/>
<path d="M229.473 155.273V142.545H230.288V155.273H229.473ZM232.217 146.364C232.157 145.86 231.916 145.469 231.491 145.19C231.067 144.912 230.547 144.773 229.93 144.773C229.479 144.773 229.085 144.846 228.747 144.991C228.412 145.137 228.15 145.338 227.961 145.593C227.776 145.848 227.683 146.138 227.683 146.463C227.683 146.735 227.748 146.969 227.877 147.164C228.01 147.356 228.179 147.517 228.384 147.646C228.59 147.772 228.805 147.877 229.03 147.96C229.256 148.039 229.463 148.104 229.652 148.153L230.686 148.432C230.951 148.501 231.246 148.598 231.571 148.72C231.899 148.843 232.212 149.01 232.51 149.222C232.812 149.431 233.061 149.7 233.256 150.028C233.452 150.356 233.55 150.759 233.55 151.236C233.55 151.786 233.405 152.283 233.117 152.727C232.832 153.171 232.414 153.524 231.864 153.786C231.317 154.048 230.653 154.179 229.871 154.179C229.141 154.179 228.51 154.061 227.976 153.826C227.446 153.591 227.028 153.263 226.724 152.842C226.422 152.421 226.251 151.932 226.211 151.375H227.484C227.517 151.759 227.647 152.078 227.872 152.33C228.101 152.578 228.389 152.764 228.737 152.886C229.088 153.006 229.466 153.065 229.871 153.065C230.341 153.065 230.764 152.989 231.138 152.837C231.513 152.681 231.809 152.465 232.028 152.19C232.247 151.912 232.356 151.587 232.356 151.216C232.356 150.878 232.262 150.603 232.073 150.391C231.884 150.179 231.635 150.006 231.327 149.874C231.019 149.741 230.686 149.625 230.328 149.526L229.075 149.168C228.28 148.939 227.65 148.612 227.186 148.188C226.722 147.764 226.49 147.209 226.49 146.523C226.49 145.953 226.644 145.455 226.952 145.031C227.264 144.604 227.681 144.272 228.205 144.037C228.732 143.798 229.32 143.679 229.97 143.679C230.626 143.679 231.21 143.797 231.72 144.032C232.23 144.264 232.635 144.582 232.933 144.987C233.235 145.391 233.394 145.85 233.41 146.364H232.217ZM238.977 143.818V154H237.744V145.111H237.685L235.199 146.761V145.509L237.744 143.818H238.977ZM242.179 154.08C241.934 154.08 241.723 153.992 241.548 153.816C241.372 153.64 241.284 153.43 241.284 153.185C241.284 152.939 241.372 152.729 241.548 152.553C241.723 152.378 241.934 152.29 242.179 152.29C242.424 152.29 242.635 152.378 242.81 152.553C242.986 152.729 243.074 152.939 243.074 153.185C243.074 153.347 243.032 153.496 242.95 153.632C242.87 153.768 242.762 153.877 242.626 153.96C242.494 154.04 242.345 154.08 242.179 154.08ZM248.125 154.139C247.376 154.139 246.738 153.935 246.211 153.528C245.684 153.117 245.281 152.522 245.003 151.743C244.724 150.961 244.585 150.016 244.585 148.909C244.585 147.809 244.724 146.869 245.003 146.09C245.285 145.308 245.689 144.711 246.216 144.3C246.746 143.886 247.383 143.679 248.125 143.679C248.867 143.679 249.502 143.886 250.029 144.3C250.559 144.711 250.964 145.308 251.242 146.09C251.524 146.869 251.665 147.809 251.665 148.909C251.665 150.016 251.526 150.961 251.247 151.743C250.969 152.522 250.566 153.117 250.039 153.528C249.512 153.935 248.874 154.139 248.125 154.139ZM248.125 153.045C248.867 153.045 249.444 152.687 249.855 151.972C250.266 151.256 250.472 150.235 250.472 148.909C250.472 148.027 250.377 147.277 250.188 146.657C250.003 146.037 249.734 145.565 249.383 145.24C249.035 144.915 248.616 144.753 248.125 144.753C247.389 144.753 246.814 145.116 246.4 145.842C245.986 146.564 245.778 147.587 245.778 148.909C245.778 149.791 245.871 150.54 246.057 151.156C246.242 151.773 246.509 152.242 246.857 152.563C247.209 152.885 247.631 153.045 248.125 153.045ZM256.875 154.139C256.126 154.139 255.488 153.935 254.961 153.528C254.434 153.117 254.031 152.522 253.753 151.743C253.474 150.961 253.335 150.016 253.335 148.909C253.335 147.809 253.474 146.869 253.753 146.09C254.035 145.308 254.439 144.711 254.966 144.3C255.496 143.886 256.133 143.679 256.875 143.679C257.617 143.679 258.252 143.886 258.779 144.3C259.309 144.711 259.714 145.308 259.992 146.09C260.274 146.869 260.415 147.809 260.415 148.909C260.415 150.016 260.276 150.961 259.997 151.743C259.719 152.522 259.316 153.117 258.789 153.528C258.262 153.935 257.624 154.139 256.875 154.139ZM256.875 153.045C257.617 153.045 258.194 152.687 258.605 151.972C259.016 151.256 259.222 150.235 259.222 148.909C259.222 148.027 259.127 147.277 258.938 146.657C258.753 146.037 258.484 145.565 258.133 145.24C257.785 144.915 257.366 144.753 256.875 144.753C256.139 144.753 255.564 145.116 255.15 145.842C254.736 146.564 254.528 147.587 254.528 148.909C254.528 149.791 254.621 150.54 254.807 151.156C254.992 151.773 255.259 152.242 255.607 152.563C255.959 152.885 256.381 153.045 256.875 153.045ZM265.625 154.139C264.876 154.139 264.238 153.935 263.711 153.528C263.184 153.117 262.781 152.522 262.503 151.743C262.224 150.961 262.085 150.016 262.085 148.909C262.085 147.809 262.224 146.869 262.503 146.09C262.785 145.308 263.189 144.711 263.716 144.3C264.246 143.886 264.883 143.679 265.625 143.679C266.367 143.679 267.002 143.886 267.529 144.3C268.059 144.711 268.464 145.308 268.742 146.09C269.024 146.869 269.165 147.809 269.165 148.909C269.165 150.016 269.026 150.961 268.747 151.743C268.469 152.522 268.066 153.117 267.539 153.528C267.012 153.935 266.374 154.139 265.625 154.139ZM265.625 153.045C266.367 153.045 266.944 152.687 267.355 151.972C267.766 151.256 267.972 150.235 267.972 148.909C267.972 148.027 267.877 147.277 267.688 146.657C267.503 146.037 267.234 145.565 266.883 145.24C266.535 144.915 266.116 144.753 265.625 144.753C264.889 144.753 264.314 145.116 263.9 145.842C263.486 146.564 263.278 147.587 263.278 148.909C263.278 149.791 263.371 150.54 263.557 151.156C263.742 151.773 264.009 152.242 264.357 152.563C264.709 152.885 265.131 153.045 265.625 153.045Z" fill="white"/>
<path d="M229.391 133.273V120.545H230.206V133.273H229.391ZM232.135 124.364C232.075 123.86 231.834 123.469 231.409 123.19C230.985 122.912 230.465 122.773 229.848 122.773C229.397 122.773 229.003 122.846 228.665 122.991C228.33 123.137 228.068 123.338 227.879 123.593C227.694 123.848 227.601 124.138 227.601 124.463C227.601 124.735 227.666 124.969 227.795 125.164C227.927 125.356 228.097 125.517 228.302 125.646C228.508 125.772 228.723 125.877 228.948 125.96C229.174 126.039 229.381 126.104 229.57 126.153L230.604 126.432C230.869 126.501 231.164 126.598 231.489 126.72C231.817 126.843 232.13 127.01 232.428 127.222C232.73 127.431 232.979 127.7 233.174 128.028C233.37 128.356 233.468 128.759 233.468 129.236C233.468 129.786 233.323 130.283 233.035 130.727C232.75 131.171 232.332 131.524 231.782 131.786C231.235 132.048 230.571 132.179 229.789 132.179C229.059 132.179 228.428 132.061 227.894 131.826C227.364 131.591 226.946 131.263 226.642 130.842C226.34 130.421 226.169 129.932 226.129 129.375H227.402C227.435 129.759 227.565 130.078 227.79 130.33C228.019 130.578 228.307 130.764 228.655 130.886C229.006 131.006 229.384 131.065 229.789 131.065C230.259 131.065 230.682 130.989 231.056 130.837C231.431 130.681 231.727 130.465 231.946 130.19C232.165 129.912 232.274 129.587 232.274 129.216C232.274 128.878 232.18 128.603 231.991 128.391C231.802 128.179 231.553 128.006 231.245 127.874C230.937 127.741 230.604 127.625 230.246 127.526L228.993 127.168C228.198 126.939 227.568 126.612 227.104 126.188C226.64 125.764 226.408 125.209 226.408 124.523C226.408 123.953 226.562 123.455 226.87 123.031C227.182 122.604 227.599 122.272 228.123 122.037C228.65 121.798 229.238 121.679 229.888 121.679C230.544 121.679 231.128 121.797 231.638 122.032C232.148 122.264 232.553 122.582 232.851 122.987C233.153 123.391 233.312 123.85 233.328 124.364H232.135ZM238.895 121.818V132H237.662V123.111H237.603L235.117 124.761V123.509L237.662 121.818H238.895ZM242.097 132.08C241.852 132.08 241.641 131.992 241.466 131.816C241.29 131.64 241.202 131.43 241.202 131.185C241.202 130.939 241.29 130.729 241.466 130.553C241.641 130.378 241.852 130.29 242.097 130.29C242.342 130.29 242.553 130.378 242.728 130.553C242.904 130.729 242.992 130.939 242.992 131.185C242.992 131.347 242.95 131.496 242.868 131.632C242.788 131.768 242.68 131.877 242.544 131.96C242.412 132.04 242.263 132.08 242.097 132.08ZM245.077 132V131.105L248.438 127.426C248.833 126.995 249.157 126.621 249.413 126.303C249.668 125.981 249.857 125.679 249.979 125.398C250.105 125.113 250.168 124.814 250.168 124.503C250.168 124.145 250.082 123.835 249.91 123.573C249.741 123.311 249.509 123.109 249.214 122.967C248.919 122.824 248.587 122.753 248.219 122.753C247.828 122.753 247.487 122.834 247.195 122.996C246.907 123.156 246.683 123.379 246.524 123.668C246.368 123.956 246.29 124.294 246.29 124.682H245.117C245.117 124.085 245.255 123.562 245.53 123.111C245.805 122.66 246.179 122.309 246.653 122.057C247.131 121.805 247.666 121.679 248.259 121.679C248.856 121.679 249.384 121.805 249.845 122.057C250.306 122.309 250.667 122.648 250.929 123.076C251.191 123.504 251.322 123.979 251.322 124.503C251.322 124.877 251.254 125.244 251.118 125.602C250.985 125.956 250.753 126.352 250.422 126.79C250.094 127.224 249.638 127.754 249.055 128.381L246.768 130.827V130.906H251.501V132H245.077ZM256.875 132.139C256.126 132.139 255.488 131.935 254.961 131.528C254.434 131.117 254.031 130.522 253.753 129.743C253.474 128.961 253.335 128.016 253.335 126.909C253.335 125.809 253.474 124.869 253.753 124.09C254.035 123.308 254.439 122.711 254.966 122.3C255.496 121.886 256.133 121.679 256.875 121.679C257.617 121.679 258.252 121.886 258.779 122.3C259.309 122.711 259.714 123.308 259.992 124.09C260.274 124.869 260.415 125.809 260.415 126.909C260.415 128.016 260.276 128.961 259.997 129.743C259.719 130.522 259.316 131.117 258.789 131.528C258.262 131.935 257.624 132.139 256.875 132.139ZM256.875 131.045C257.617 131.045 258.194 130.687 258.605 129.972C259.016 129.256 259.222 128.235 259.222 126.909C259.222 126.027 259.127 125.277 258.938 124.657C258.753 124.037 258.484 123.565 258.133 123.24C257.785 122.915 257.366 122.753 256.875 122.753C256.139 122.753 255.564 123.116 255.15 123.842C254.736 124.564 254.528 125.587 254.528 126.909C254.528 127.791 254.621 128.54 254.807 129.156C254.992 129.773 255.259 130.242 255.607 130.563C255.959 130.885 256.381 131.045 256.875 131.045ZM265.625 132.139C264.876 132.139 264.238 131.935 263.711 131.528C263.184 131.117 262.781 130.522 262.503 129.743C262.224 128.961 262.085 128.016 262.085 126.909C262.085 125.809 262.224 124.869 262.503 124.09C262.785 123.308 263.189 122.711 263.716 122.3C264.246 121.886 264.883 121.679 265.625 121.679C266.367 121.679 267.002 121.886 267.529 122.3C268.059 122.711 268.464 123.308 268.742 124.09C269.024 124.869 269.165 125.809 269.165 126.909C269.165 128.016 269.026 128.961 268.747 129.743C268.469 130.522 268.066 131.117 267.539 131.528C267.012 131.935 266.374 132.139 265.625 132.139ZM265.625 131.045C266.367 131.045 266.944 130.687 267.355 129.972C267.766 129.256 267.972 128.235 267.972 126.909C267.972 126.027 267.877 125.277 267.688 124.657C267.503 124.037 267.234 123.565 266.883 123.24C266.535 122.915 266.116 122.753 265.625 122.753C264.889 122.753 264.314 123.116 263.9 123.842C263.486 124.564 263.278 125.587 263.278 126.909C263.278 127.791 263.371 128.54 263.557 129.156C263.742 129.773 264.009 130.242 264.357 130.563C264.709 130.885 265.131 131.045 265.625 131.045Z" fill="white"/>
<path d="M239.002 177.273V164.545H239.817V177.273H239.002ZM241.746 168.364C241.687 167.86 241.445 167.469 241.021 167.19C240.596 166.912 240.076 166.773 239.46 166.773C239.009 166.773 238.614 166.846 238.276 166.991C237.942 167.137 237.68 167.338 237.491 167.593C237.305 167.848 237.212 168.138 237.212 168.463C237.212 168.735 237.277 168.969 237.406 169.164C237.539 169.356 237.708 169.517 237.913 169.646C238.119 169.772 238.334 169.877 238.56 169.96C238.785 170.039 238.992 170.104 239.181 170.153L240.215 170.432C240.48 170.501 240.775 170.598 241.1 170.72C241.428 170.843 241.741 171.01 242.04 171.222C242.341 171.431 242.59 171.7 242.786 172.028C242.981 172.356 243.079 172.759 243.079 173.236C243.079 173.786 242.935 174.283 242.646 174.727C242.361 175.171 241.944 175.524 241.393 175.786C240.847 176.048 240.182 176.179 239.4 176.179C238.671 176.179 238.039 176.061 237.506 175.826C236.975 175.591 236.558 175.263 236.253 174.842C235.951 174.421 235.781 173.932 235.741 173.375H237.013C237.047 173.759 237.176 174.078 237.401 174.33C237.63 174.578 237.918 174.764 238.266 174.886C238.618 175.006 238.996 175.065 239.4 175.065C239.871 175.065 240.293 174.989 240.668 174.837C241.042 174.681 241.339 174.465 241.558 174.19C241.776 173.912 241.886 173.587 241.886 173.216C241.886 172.878 241.791 172.603 241.602 172.391C241.413 172.179 241.165 172.006 240.857 171.874C240.548 171.741 240.215 171.625 239.857 171.526L238.604 171.168C237.809 170.939 237.179 170.612 236.715 170.188C236.251 169.764 236.019 169.209 236.019 168.523C236.019 167.953 236.173 167.455 236.482 167.031C236.793 166.604 237.211 166.272 237.734 166.037C238.261 165.798 238.85 165.679 239.499 165.679C240.156 165.679 240.739 165.797 241.249 166.032C241.76 166.264 242.164 166.582 242.462 166.987C242.764 167.391 242.923 167.85 242.94 168.364H241.746ZM248.188 176.139C247.506 176.139 246.902 176.018 246.379 175.776C245.858 175.531 245.452 175.195 245.161 174.767C244.869 174.336 244.725 173.846 244.728 173.295C244.725 172.865 244.809 172.467 244.982 172.102C245.154 171.734 245.389 171.428 245.688 171.183C245.989 170.934 246.326 170.777 246.697 170.71V170.651C246.21 170.525 245.822 170.251 245.534 169.83C245.245 169.406 245.103 168.924 245.106 168.384C245.103 167.866 245.234 167.404 245.499 166.996C245.764 166.589 246.128 166.267 246.593 166.032C247.06 165.797 247.592 165.679 248.188 165.679C248.778 165.679 249.305 165.797 249.769 166.032C250.233 166.267 250.598 166.589 250.863 166.996C251.132 167.404 251.267 167.866 251.271 168.384C251.267 168.924 251.12 169.406 250.828 169.83C250.54 170.251 250.157 170.525 249.68 170.651V170.71C250.048 170.777 250.379 170.934 250.674 171.183C250.969 171.428 251.204 171.734 251.38 172.102C251.556 172.467 251.645 172.865 251.649 173.295C251.645 173.846 251.496 174.336 251.201 174.767C250.91 175.195 250.503 175.531 249.983 175.776C249.466 176.018 248.868 176.139 248.188 176.139ZM248.188 175.045C248.649 175.045 249.047 174.971 249.382 174.822C249.716 174.673 249.975 174.462 250.157 174.19C250.339 173.919 250.432 173.6 250.436 173.236C250.432 172.851 250.333 172.512 250.137 172.217C249.942 171.922 249.675 171.69 249.337 171.521C249.002 171.352 248.619 171.267 248.188 171.267C247.754 171.267 247.366 171.352 247.025 171.521C246.687 171.69 246.42 171.922 246.225 172.217C246.032 172.512 245.938 172.851 245.941 173.236C245.938 173.6 246.026 173.919 246.205 174.19C246.387 174.462 246.647 174.673 246.985 174.822C247.323 174.971 247.724 175.045 248.188 175.045ZM248.188 170.213C248.553 170.213 248.876 170.14 249.158 169.994C249.443 169.848 249.667 169.645 249.829 169.383C249.991 169.121 250.074 168.814 250.078 168.463C250.074 168.118 249.993 167.818 249.834 167.563C249.675 167.305 249.454 167.106 249.173 166.967C248.891 166.824 248.563 166.753 248.188 166.753C247.807 166.753 247.474 166.824 247.189 166.967C246.904 167.106 246.684 167.305 246.528 167.563C246.372 167.818 246.296 168.118 246.299 168.463C246.296 168.814 246.374 169.121 246.533 169.383C246.695 169.645 246.919 169.848 247.204 169.994C247.489 170.14 247.817 170.213 248.188 170.213ZM256.875 176.139C256.126 176.139 255.488 175.935 254.961 175.528C254.434 175.117 254.031 174.522 253.753 173.743C253.474 172.961 253.335 172.016 253.335 170.909C253.335 169.809 253.474 168.869 253.753 168.09C254.035 167.308 254.439 166.711 254.966 166.3C255.496 165.886 256.133 165.679 256.875 165.679C257.617 165.679 258.252 165.886 258.779 166.3C259.309 166.711 259.714 167.308 259.992 168.09C260.274 168.869 260.415 169.809 260.415 170.909C260.415 172.016 260.276 172.961 259.997 173.743C259.719 174.522 259.316 175.117 258.789 175.528C258.262 175.935 257.624 176.139 256.875 176.139ZM256.875 175.045C257.617 175.045 258.194 174.687 258.605 173.972C259.016 173.256 259.222 172.235 259.222 170.909C259.222 170.027 259.127 169.277 258.938 168.657C258.753 168.037 258.484 167.565 258.133 167.24C257.785 166.915 257.366 166.753 256.875 166.753C256.139 166.753 255.564 167.116 255.15 167.842C254.736 168.564 254.528 169.587 254.528 170.909C254.528 171.791 254.621 172.54 254.807 173.156C254.992 173.773 255.259 174.242 255.607 174.563C255.959 174.885 256.381 175.045 256.875 175.045ZM265.625 176.139C264.876 176.139 264.238 175.935 263.711 175.528C263.184 175.117 262.781 174.522 262.503 173.743C262.224 172.961 262.085 172.016 262.085 170.909C262.085 169.809 262.224 168.869 262.503 168.09C262.785 167.308 263.189 166.711 263.716 166.3C264.246 165.886 264.883 165.679 265.625 165.679C266.367 165.679 267.002 165.886 267.529 166.3C268.059 166.711 268.464 167.308 268.742 168.09C269.024 168.869 269.165 169.809 269.165 170.909C269.165 172.016 269.026 172.961 268.747 173.743C268.469 174.522 268.066 175.117 267.539 175.528C267.012 175.935 266.374 176.139 265.625 176.139ZM265.625 175.045C266.367 175.045 266.944 174.687 267.355 173.972C267.766 173.256 267.972 172.235 267.972 170.909C267.972 170.027 267.877 169.277 267.688 168.657C267.503 168.037 267.234 167.565 266.883 167.24C266.535 166.915 266.116 166.753 265.625 166.753C264.889 166.753 264.314 167.116 263.9 167.842C263.486 168.564 263.278 169.587 263.278 170.909C263.278 171.791 263.371 172.54 263.557 173.156C263.742 173.773 264.009 174.242 264.357 174.563C264.709 174.885 265.131 175.045 265.625 175.045Z" fill="white"/>
<rect x="83" y="175" width="143" height="1" rx="0.5" fill="#242424"/>
<rect x="75" y="153" width="142" height="1" rx="0.5" fill="#242424"/>
<rect x="66" y="131" width="151" height="1" rx="0.5" fill="#242424"/>
<rect x="71" y="109" width="146" height="1" rx="0.5" fill="#242424"/>
<rect x="20.5" y="20.5" width="249" height="65" rx="11.5" fill="#191919"/>
<rect x="20.5" y="20.5" width="249" height="65" rx="11.5" stroke="#242424"/>
<path d="M126.044 46.5V34.8636H130.305C131.131 34.8636 131.815 35 132.357 35.2727C132.898 35.5417 133.304 35.9072 133.572 36.3693C133.841 36.8277 133.976 37.3447 133.976 37.9205C133.976 38.4053 133.887 38.8144 133.709 39.1477C133.531 39.4773 133.292 39.7424 132.993 39.9432C132.697 40.1402 132.372 40.2841 132.016 40.375V40.4886C132.402 40.5076 132.779 40.6326 133.146 40.8636C133.518 41.0909 133.824 41.4148 134.067 41.8352C134.309 42.2557 134.43 42.767 134.43 43.3693C134.43 43.964 134.29 44.4981 134.01 44.9716C133.733 45.4413 133.305 45.8144 132.726 46.0909C132.146 46.3636 131.406 46.5 130.504 46.5H126.044ZM127.8 44.9943H130.334C131.175 44.9943 131.777 44.8314 132.141 44.5057C132.504 44.1799 132.686 43.7727 132.686 43.2841C132.686 42.9167 132.593 42.5795 132.408 42.2727C132.222 41.9659 131.957 41.7216 131.612 41.5398C131.271 41.358 130.866 41.267 130.396 41.267H127.8V44.9943ZM127.8 39.8977H130.152C130.546 39.8977 130.9 39.822 131.214 39.6705C131.533 39.5189 131.785 39.3068 131.97 39.0341C132.16 38.7576 132.254 38.4318 132.254 38.0568C132.254 37.5758 132.086 37.1723 131.749 36.8466C131.411 36.5208 130.894 36.358 130.197 36.358H127.8V39.8977ZM136.513 34.8636H138.643L142.348 43.9091H142.484L146.189 34.8636H148.32V46.5H146.649V38.0795H146.541L143.109 46.483H141.723L138.291 38.0739H138.183V46.5H136.513V34.8636ZM153.151 46.5L149.923 34.8636H151.77L154.037 43.875H154.145L156.503 34.8636H158.332L160.69 43.8807H160.798L163.06 34.8636H164.912L161.679 46.5H159.912L157.463 37.7841H157.372L154.923 46.5H153.151Z" fill="white"/>
<path d="M85.733 70.5V58.8636H89.6591C90.4167 58.8636 91.0473 58.9962 91.5511 59.2614C92.0587 59.5265 92.4394 59.8883 92.6932 60.3466C92.947 60.8049 93.0739 61.3258 93.0739 61.9091C93.0739 62.3939 92.9924 62.8087 92.8295 63.1534C92.6667 63.4981 92.4451 63.7765 92.1648 63.9886C91.8845 64.2008 91.572 64.3542 91.2273 64.4489V64.5398C91.6023 64.5663 91.9659 64.6989 92.3182 64.9375C92.6705 65.1723 92.9602 65.5019 93.1875 65.9261C93.4148 66.3504 93.5284 66.858 93.5284 67.4489C93.5284 68.036 93.3977 68.5606 93.1364 69.0227C92.875 69.4811 92.4735 69.8428 91.9318 70.108C91.3939 70.3693 90.7083 70.5 89.875 70.5H85.733ZM86.7955 69.5455H89.875C90.7727 69.5455 91.4356 69.3466 91.8636 68.9489C92.2955 68.5511 92.5114 68.0511 92.5114 67.4489C92.5114 67.0057 92.4034 66.6042 92.1875 66.2443C91.9754 65.8807 91.6742 65.5928 91.2841 65.3807C90.8977 65.1686 90.4432 65.0625 89.9205 65.0625H86.7955V69.5455ZM86.7955 64.1193H89.7557C90.214 64.1193 90.6155 64.0246 90.9602 63.8352C91.3049 63.6458 91.5739 63.3845 91.767 63.0511C91.9602 62.7178 92.0568 62.3371 92.0568 61.9091C92.0568 61.2917 91.8561 60.7898 91.4545 60.4034C91.053 60.0133 90.4545 59.8182 89.6591 59.8182H86.7955V64.1193ZM96.0923 58.8636H97.3196L101.541 69H101.643L105.865 58.8636H107.092V70.5H106.092V61.108H106.001L102.075 70.5H101.109L97.1832 61.108H97.0923V70.5H96.0923V58.8636ZM112.209 70.5L109.021 58.8636H110.101L112.737 68.8693H112.828L115.464 58.8636H116.692L119.328 68.8693H119.419L122.055 58.8636H123.141L119.953 70.5H118.817L116.118 60.6307H116.044L113.345 70.5H112.209ZM129.561 58.8636H130.788L135.01 69H135.112L139.334 58.8636H140.561V70.5H139.561V61.108H139.47L135.544 70.5H134.578L130.652 61.108H130.561V70.5H129.561V58.8636ZM143.126 68V67.1364L148.314 58.8636H148.95V60.3125H148.479L144.314 66.9716V67.0455H151.115V68H143.126ZM148.558 70.5V67.7273V67.3295V58.8636H149.57V70.5H148.558ZM167.284 62.5H166.216C166.136 62.1023 165.992 61.7348 165.784 61.3977C165.58 61.0568 165.322 60.7595 165.011 60.5057C164.701 60.2519 164.348 60.0549 163.955 59.9148C163.561 59.7746 163.134 59.7045 162.676 59.7045C161.941 59.7045 161.271 59.8958 160.665 60.2784C160.063 60.661 159.58 61.2235 159.216 61.9659C158.856 62.7045 158.676 63.6098 158.676 64.6818C158.676 65.7614 158.856 66.6705 159.216 67.4091C159.58 68.1477 160.063 68.7083 160.665 69.0909C161.271 69.4697 161.941 69.6591 162.676 69.6591C163.134 69.6591 163.561 69.589 163.955 69.4489C164.348 69.3087 164.701 69.1136 165.011 68.8636C165.322 68.6098 165.58 68.3125 165.784 67.9716C165.992 67.6307 166.136 67.2614 166.216 66.8636H167.284C167.189 67.3977 167.011 67.8958 166.75 68.358C166.492 68.8163 166.163 69.2178 165.761 69.5625C165.364 69.9072 164.905 70.1761 164.386 70.3693C163.867 70.5625 163.297 70.6591 162.676 70.6591C161.699 70.6591 160.831 70.4148 160.074 69.9261C159.316 69.4337 158.722 68.7405 158.29 67.8466C157.862 66.9527 157.648 65.8977 157.648 64.6818C157.648 63.4659 157.862 62.411 158.29 61.517C158.722 60.6231 159.316 59.9318 160.074 59.4432C160.831 58.9508 161.699 58.7045 162.676 58.7045C163.297 58.7045 163.867 58.8011 164.386 58.9943C164.905 59.1837 165.364 59.4527 165.761 59.8011C166.163 60.1458 166.492 60.5473 166.75 61.0057C167.011 61.464 167.189 61.9621 167.284 62.5ZM172.007 70.6989C171.481 70.6989 171 70.5966 170.564 70.392C170.128 70.1837 169.782 69.8845 169.524 69.4943C169.267 69.1004 169.138 68.6231 169.138 68.0625C169.138 67.6307 169.219 67.267 169.382 66.9716C169.545 66.6761 169.776 66.4337 170.075 66.2443C170.375 66.0549 170.729 65.9053 171.138 65.7955C171.547 65.6856 171.998 65.6004 172.49 65.5398C172.979 65.4792 173.392 65.4261 173.729 65.3807C174.07 65.3352 174.329 65.2633 174.507 65.1648C174.685 65.0663 174.774 64.9072 174.774 64.6875V64.483C174.774 63.8883 174.596 63.4205 174.24 63.0795C173.888 62.7348 173.38 62.5625 172.717 62.5625C172.089 62.5625 171.575 62.7008 171.178 62.9773C170.784 63.2538 170.507 63.5795 170.348 63.9545L169.388 63.608C169.585 63.1307 169.857 62.75 170.206 62.4659C170.554 62.178 170.945 61.9716 171.376 61.8466C171.808 61.7178 172.246 61.6534 172.689 61.6534C173.022 61.6534 173.369 61.697 173.729 61.7841C174.092 61.8712 174.429 62.0227 174.74 62.2386C175.051 62.4508 175.303 62.7481 175.496 63.1307C175.689 63.5095 175.786 63.9905 175.786 64.5739V70.5H174.774V69.1193H174.712C174.59 69.3769 174.411 69.6269 174.172 69.8693C173.933 70.1117 173.634 70.3106 173.274 70.4659C172.914 70.6212 172.492 70.6989 172.007 70.6989ZM172.143 69.7727C172.681 69.7727 173.147 69.6534 173.541 69.4148C173.935 69.1761 174.238 68.8598 174.45 68.4659C174.666 68.0682 174.774 67.6307 174.774 67.1534V65.892C174.698 65.964 174.571 66.0284 174.393 66.0852C174.219 66.142 174.017 66.1932 173.786 66.2386C173.558 66.2803 173.331 66.3163 173.104 66.3466C172.876 66.3769 172.672 66.4034 172.49 66.4261C171.998 66.4867 171.577 66.5814 171.229 66.7102C170.88 66.839 170.613 67.017 170.428 67.2443C170.242 67.4678 170.149 67.7557 170.149 68.108C170.149 68.6383 170.339 69.0492 170.717 69.3409C171.096 69.6288 171.571 69.7727 172.143 69.7727ZM178.686 70.5V58.8636H179.703V63.4375H179.794C179.908 63.1761 180.071 62.9072 180.283 62.6307C180.499 62.3542 180.781 62.1231 181.129 61.9375C181.482 61.7481 181.925 61.6534 182.459 61.6534C183.175 61.6534 183.804 61.8428 184.345 62.2216C184.887 62.5966 185.309 63.1231 185.612 63.8011C185.915 64.4754 186.067 65.2614 186.067 66.1591C186.067 67.0606 185.915 67.8504 185.612 68.5284C185.313 69.2064 184.893 69.7348 184.351 70.1136C183.813 70.4924 183.188 70.6818 182.476 70.6818C181.946 70.6818 181.502 70.5871 181.146 70.3977C180.794 70.2083 180.51 69.9754 180.294 69.6989C180.078 69.4186 179.911 69.1458 179.794 68.8807H179.669V70.5H178.686ZM179.686 66.142C179.686 66.8466 179.79 67.4716 179.999 68.017C180.211 68.5587 180.514 68.9848 180.908 69.2955C181.305 69.6023 181.786 69.7557 182.351 69.7557C182.93 69.7557 183.421 69.5966 183.822 69.2784C184.224 68.9564 184.529 68.5227 184.737 67.9773C184.946 67.4318 185.05 66.8201 185.05 66.142C185.05 65.4716 184.946 64.8674 184.737 64.3295C184.533 63.7917 184.23 63.3655 183.828 63.0511C183.427 62.733 182.934 62.5739 182.351 62.5739C181.783 62.5739 181.3 62.7273 180.902 63.0341C180.508 63.3371 180.207 63.7576 179.999 64.2955C179.79 64.8295 179.686 65.4451 179.686 66.142ZM188.288 70.5V61.7727H189.271V63.1136H189.345C189.519 62.6742 189.822 62.3201 190.254 62.0511C190.69 61.7784 191.182 61.642 191.732 61.642C191.815 61.642 191.908 61.6439 192.01 61.6477C192.112 61.6515 192.197 61.6553 192.266 61.6591V62.6875C192.22 62.6799 192.141 62.6686 192.027 62.6534C191.913 62.6383 191.79 62.6307 191.658 62.6307C191.203 62.6307 190.798 62.7273 190.442 62.9205C190.089 63.1098 189.811 63.3731 189.607 63.7102C189.402 64.0473 189.3 64.4318 189.3 64.8636V70.5H188.288ZM194.003 70.5V61.7727H195.02V70.5H194.003ZM194.52 60.2727C194.312 60.2727 194.134 60.2027 193.986 60.0625C193.838 59.9186 193.764 59.7462 193.764 59.5455C193.764 59.3447 193.838 59.1742 193.986 59.0341C194.134 58.8902 194.312 58.8182 194.52 58.8182C194.728 58.8182 194.906 58.8902 195.054 59.0341C195.202 59.1742 195.276 59.3447 195.276 59.5455C195.276 59.7462 195.202 59.9186 195.054 60.0625C194.906 60.2027 194.728 60.2727 194.52 60.2727ZM201.087 70.6818C200.333 70.6818 199.666 70.4905 199.087 70.108C198.511 69.7254 198.06 69.197 197.734 68.5227C197.409 67.8447 197.246 67.0625 197.246 66.1761C197.246 65.2822 197.409 64.4962 197.734 63.8182C198.06 63.1364 198.511 62.6061 199.087 62.2273C199.666 61.8447 200.333 61.6534 201.087 61.6534C201.84 61.6534 202.505 61.8447 203.081 62.2273C203.657 62.6098 204.107 63.1402 204.433 63.8182C204.763 64.4962 204.928 65.2822 204.928 66.1761C204.928 67.0625 204.765 67.8447 204.439 68.5227C204.113 69.197 203.661 69.7254 203.081 70.108C202.505 70.4905 201.84 70.6818 201.087 70.6818ZM201.087 69.7557C201.693 69.7557 202.206 69.5928 202.626 69.267C203.047 68.9413 203.365 68.5076 203.581 67.9659C203.801 67.4242 203.911 66.8277 203.911 66.1761C203.911 65.5246 203.801 64.9261 203.581 64.3807C203.365 63.8352 203.047 63.3977 202.626 63.0682C202.206 62.7386 201.693 62.5739 201.087 62.5739C200.484 62.5739 199.971 62.7386 199.547 63.0682C199.126 63.3977 198.806 63.8352 198.587 64.3807C198.371 64.9261 198.263 65.5246 198.263 66.1761C198.263 66.8277 198.371 67.4242 198.587 67.9659C198.806 68.5076 199.126 68.9413 199.547 69.267C199.967 69.5928 200.481 69.7557 201.087 69.7557Z" fill="#757575"/>
<rect x="20" y="189" width="250" height="40" rx="8" fill="#9DC21B"/>
<path d="M90.436 214.112C89.6893 214.112 88.994 213.986 88.35 213.734C87.7153 213.482 87.1647 213.132 86.698 212.684C86.2313 212.227 85.8673 211.695 85.606 211.088C85.3447 210.481 85.214 209.819 85.214 209.1C85.214 208.381 85.3447 207.719 85.606 207.112C85.8673 206.505 86.2313 205.978 86.698 205.53C87.1647 205.073 87.7153 204.718 88.35 204.466C88.9847 204.214 89.68 204.088 90.436 204.088C91.1827 204.088 91.8687 204.214 92.494 204.466C93.1287 204.709 93.6793 205.059 94.146 205.516C94.622 205.964 94.986 206.491 95.238 207.098C95.4993 207.705 95.63 208.372 95.63 209.1C95.63 209.828 95.4993 210.495 95.238 211.102C94.986 211.709 94.622 212.241 94.146 212.698C93.6793 213.146 93.1287 213.496 92.494 213.748C91.8687 213.991 91.1827 214.112 90.436 214.112ZM90.436 212.866C90.9773 212.866 91.4767 212.773 91.934 212.586C92.4007 212.399 92.802 212.138 93.138 211.802C93.4833 211.457 93.7493 211.055 93.936 210.598C94.132 210.141 94.23 209.641 94.23 209.1C94.23 208.559 94.132 208.059 93.936 207.602C93.7493 207.145 93.4833 206.748 93.138 206.412C92.802 206.067 92.4007 205.801 91.934 205.614C91.4767 205.427 90.9773 205.334 90.436 205.334C89.8853 205.334 89.3767 205.427 88.91 205.614C88.4527 205.801 88.0513 206.067 87.706 206.412C87.3607 206.748 87.09 207.145 86.894 207.602C86.7073 208.059 86.614 208.559 86.614 209.1C86.614 209.641 86.7073 210.141 86.894 210.598C87.09 211.055 87.3607 211.457 87.706 211.802C88.0513 212.138 88.4527 212.399 88.91 212.586C89.3767 212.773 89.8853 212.866 90.436 212.866ZM100.903 214.084C100.147 214.084 99.4705 213.921 98.8732 213.594C98.2852 213.267 97.8232 212.819 97.4872 212.25C97.1512 211.681 96.9832 211.027 96.9832 210.29C96.9832 209.553 97.1512 208.899 97.4872 208.33C97.8232 207.761 98.2852 207.317 98.8732 207C99.4705 206.673 100.147 206.51 100.903 206.51C101.575 206.51 102.173 206.645 102.695 206.916C103.227 207.177 103.638 207.569 103.927 208.092L102.905 208.75C102.663 208.386 102.364 208.12 102.009 207.952C101.664 207.775 101.291 207.686 100.889 207.686C100.404 207.686 99.9699 207.793 99.5872 208.008C99.2045 208.223 98.9012 208.526 98.6772 208.918C98.4532 209.301 98.3412 209.758 98.3412 210.29C98.3412 210.822 98.4532 211.284 98.6772 211.676C98.9012 212.068 99.2045 212.371 99.5872 212.586C99.9699 212.801 100.404 212.908 100.889 212.908C101.291 212.908 101.664 212.824 102.009 212.656C102.364 212.479 102.663 212.208 102.905 211.844L103.927 212.488C103.638 213.001 103.227 213.398 102.695 213.678C102.173 213.949 101.575 214.084 100.903 214.084ZM107.042 214V207.406L107.378 207.756H104.326V206.58H111.102V207.756H108.064L108.386 207.406V214H107.042ZM117.026 214V212.432L116.956 212.138V209.464C116.956 208.895 116.788 208.456 116.452 208.148C116.125 207.831 115.63 207.672 114.968 207.672C114.529 207.672 114.1 207.747 113.68 207.896C113.26 208.036 112.905 208.227 112.616 208.47L112.056 207.462C112.438 207.154 112.896 206.921 113.428 206.762C113.969 206.594 114.534 206.51 115.122 206.51C116.139 206.51 116.923 206.757 117.474 207.252C118.024 207.747 118.3 208.503 118.3 209.52V214H117.026ZM114.59 214.084C114.039 214.084 113.554 213.991 113.134 213.804C112.723 213.617 112.406 213.361 112.182 213.034C111.958 212.698 111.846 212.32 111.846 211.9C111.846 211.499 111.939 211.135 112.126 210.808C112.322 210.481 112.634 210.22 113.064 210.024C113.502 209.828 114.09 209.73 114.828 209.73H117.18V210.696H114.884C114.212 210.696 113.759 210.808 113.526 211.032C113.292 211.256 113.176 211.527 113.176 211.844C113.176 212.208 113.32 212.502 113.61 212.726C113.899 212.941 114.3 213.048 114.814 213.048C115.318 213.048 115.756 212.936 116.13 212.712C116.512 212.488 116.788 212.161 116.956 211.732L117.222 212.656C117.044 213.095 116.732 213.445 116.284 213.706C115.836 213.958 115.271 214.084 114.59 214.084ZM120.72 214V206.58H124.164C125.032 206.58 125.713 206.748 126.208 207.084C126.712 207.411 126.964 207.877 126.964 208.484C126.964 209.091 126.726 209.562 126.25 209.898C125.783 210.225 125.163 210.388 124.388 210.388L124.598 210.024C125.485 210.024 126.143 210.187 126.572 210.514C127.001 210.841 127.216 211.321 127.216 211.956C127.216 212.6 126.973 213.104 126.488 213.468C126.012 213.823 125.279 214 124.29 214H120.72ZM122.036 212.964H124.192C124.752 212.964 125.172 212.88 125.452 212.712C125.732 212.535 125.872 212.255 125.872 211.872C125.872 211.48 125.741 211.195 125.48 211.018C125.228 210.831 124.827 210.738 124.276 210.738H122.036V212.964ZM122.036 209.772H124.052C124.565 209.772 124.953 209.679 125.214 209.492C125.485 209.296 125.62 209.025 125.62 208.68C125.62 208.325 125.485 208.059 125.214 207.882C124.953 207.705 124.565 207.616 124.052 207.616H122.036V209.772ZM129.32 214V206.58H130.664V211.984L135.214 206.58H136.432V214H135.088V208.596L130.552 214H129.32ZM140.51 214V207.406L140.846 207.756H137.794V206.58H144.57V207.756H141.532L141.854 207.406V214H140.51ZM149.375 209.1C150.317 209.109 151.036 209.324 151.531 209.744C152.025 210.164 152.273 210.757 152.273 211.522C152.273 212.325 152.002 212.945 151.461 213.384C150.919 213.813 150.154 214.023 149.165 214.014L145.945 214V206.58H147.289V209.086L149.375 209.1ZM149.053 212.992C149.659 213.001 150.117 212.88 150.425 212.628C150.742 212.376 150.901 212.003 150.901 211.508C150.901 211.023 150.747 210.668 150.439 210.444C150.131 210.22 149.669 210.103 149.053 210.094L147.289 210.066V212.978L149.053 212.992ZM159.927 214.098C159.367 214.098 158.816 214.028 158.275 213.888C157.743 213.739 157.267 213.529 156.847 213.258L157.253 212.236C157.608 212.46 158.014 212.637 158.471 212.768C158.928 212.889 159.39 212.95 159.857 212.95C160.286 212.95 160.655 212.899 160.963 212.796C161.28 212.693 161.523 212.553 161.691 212.376C161.859 212.189 161.943 211.975 161.943 211.732C161.943 211.387 161.789 211.121 161.481 210.934C161.173 210.747 160.744 210.654 160.193 210.654H158.849V209.688H160.109C160.436 209.688 160.72 209.651 160.963 209.576C161.206 209.501 161.392 209.389 161.523 209.24C161.663 209.081 161.733 208.899 161.733 208.694C161.733 208.47 161.654 208.279 161.495 208.12C161.336 207.961 161.112 207.84 160.823 207.756C160.543 207.672 160.212 207.63 159.829 207.63C159.456 207.639 159.073 207.691 158.681 207.784C158.298 207.877 157.906 208.022 157.505 208.218L157.141 207.168C157.589 206.953 158.028 206.79 158.457 206.678C158.896 206.557 159.33 206.491 159.759 206.482C160.403 206.463 160.977 206.538 161.481 206.706C161.985 206.865 162.382 207.098 162.671 207.406C162.97 207.714 163.119 208.078 163.119 208.498C163.119 208.853 163.007 209.17 162.783 209.45C162.559 209.721 162.26 209.935 161.887 210.094C161.514 210.253 161.084 210.332 160.599 210.332L160.655 210.01C161.486 210.01 162.139 210.173 162.615 210.5C163.091 210.827 163.329 211.27 163.329 211.83C163.329 212.278 163.18 212.675 162.881 213.02C162.582 213.356 162.176 213.622 161.663 213.818C161.159 214.005 160.58 214.098 159.927 214.098ZM169.922 214V212.432L169.852 212.138V209.464C169.852 208.895 169.684 208.456 169.348 208.148C169.022 207.831 168.527 207.672 167.864 207.672C167.426 207.672 166.996 207.747 166.576 207.896C166.156 208.036 165.802 208.227 165.512 208.47L164.952 207.462C165.335 207.154 165.792 206.921 166.324 206.762C166.866 206.594 167.43 206.51 168.018 206.51C169.036 206.51 169.82 206.757 170.37 207.252C170.921 207.747 171.196 208.503 171.196 209.52V214H169.922ZM167.486 214.084C166.936 214.084 166.45 213.991 166.03 213.804C165.62 213.617 165.302 213.361 165.078 213.034C164.854 212.698 164.742 212.32 164.742 211.9C164.742 211.499 164.836 211.135 165.022 210.808C165.218 210.481 165.531 210.22 165.96 210.024C166.399 209.828 166.987 209.73 167.724 209.73H170.076V210.696H167.78C167.108 210.696 166.656 210.808 166.422 211.032C166.189 211.256 166.072 211.527 166.072 211.844C166.072 212.208 166.217 212.502 166.506 212.726C166.796 212.941 167.197 213.048 167.71 213.048C168.214 213.048 168.653 212.936 169.026 212.712C169.409 212.488 169.684 212.161 169.852 211.732L170.118 212.656C169.941 213.095 169.628 213.445 169.18 213.706C168.732 213.958 168.168 214.084 167.486 214.084ZM178.362 214V211.396L178.572 211.648H176.206C175.217 211.648 174.442 211.438 173.882 211.018C173.332 210.598 173.056 209.987 173.056 209.184C173.056 208.325 173.35 207.677 173.938 207.238C174.536 206.799 175.329 206.58 176.318 206.58H179.566V214H178.362ZM172.986 214L175.002 211.158H176.388L174.428 214H172.986ZM178.362 210.976V207.378L178.572 207.756H176.36C175.744 207.756 175.268 207.873 174.932 208.106C174.596 208.33 174.428 208.703 174.428 209.226C174.428 210.197 175.054 210.682 176.304 210.682H178.572L178.362 210.976ZM182.189 214V206.58H185.633C186.501 206.58 187.182 206.748 187.677 207.084C188.181 207.411 188.433 207.877 188.433 208.484C188.433 209.091 188.195 209.562 187.719 209.898C187.252 210.225 186.631 210.388 185.857 210.388L186.067 210.024C186.953 210.024 187.611 210.187 188.041 210.514C188.47 210.841 188.685 211.321 188.685 211.956C188.685 212.6 188.442 213.104 187.957 213.468C187.481 213.823 186.748 214 185.759 214H182.189ZM183.505 212.964H185.661C186.221 212.964 186.641 212.88 186.921 212.712C187.201 212.535 187.341 212.255 187.341 211.872C187.341 211.48 187.21 211.195 186.949 211.018C186.697 210.831 186.295 210.738 185.745 210.738H183.505V212.964ZM183.505 209.772H185.521C186.034 209.772 186.421 209.679 186.683 209.492C186.953 209.296 187.089 209.025 187.089 208.68C187.089 208.325 186.953 208.059 186.683 207.882C186.421 207.705 186.034 207.616 185.521 207.616H183.505V209.772ZM196.164 214L193.294 210.388L194.4 209.716L197.746 214H196.164ZM190.788 214V206.58H192.132V214H190.788ZM191.726 210.864V209.716H194.176V210.864H191.726ZM194.512 210.444L193.266 210.276L196.108 206.58H197.55L194.512 210.444ZM199.11 216.8C198.755 216.8 198.41 216.739 198.074 216.618C197.738 216.506 197.448 216.338 197.206 216.114L197.78 215.106C197.966 215.283 198.172 215.419 198.396 215.512C198.62 215.605 198.858 215.652 199.11 215.652C199.436 215.652 199.707 215.568 199.922 215.4C200.136 215.232 200.337 214.933 200.524 214.504L200.986 213.482L201.126 213.314L204.038 206.58H205.354L201.756 214.742C201.541 215.265 201.298 215.675 201.028 215.974C200.766 216.273 200.477 216.483 200.16 216.604C199.842 216.735 199.492 216.8 199.11 216.8ZM200.874 214.238L197.486 206.58H198.886L201.77 213.188L200.874 214.238Z" fill="black"/>
</svg>
