<svg width="14" height="15" viewBox="0 0 14 15" fill="none" xmlns="http://www.w3.org/2000/svg">
<g clip-path="url(#clip0_3_1620)">
<path d="M13.9997 5.45827C13.9997 2.72419 11.7754 0.49994 9.04136 0.49994C6.30728 0.49994 4.08303 2.72419 4.08303 5.45827C4.08303 8.19236 6.30728 10.4166 9.04136 10.4166C11.7754 10.4166 13.9997 8.19236 13.9997 5.45827ZM9.04136 9.24994C6.9507 9.24994 5.2497 7.54894 5.2497 5.45827C5.2497 3.36761 6.9507 1.66661 9.04136 1.66661C11.132 1.66661 12.833 3.36761 12.833 5.45827C12.833 7.54894 11.132 9.24994 9.04136 9.24994ZM8.58111 11.6947C8.84186 11.8837 8.9002 12.2483 8.7112 12.509C7.80761 13.7556 6.34986 14.4999 4.8122 14.4999C2.15861 14.4999 -0.000303556 12.341 -0.000303556 9.68744C-0.000303556 8.14977 0.74403 6.69261 1.99061 5.78844C2.25195 5.59944 2.61653 5.65719 2.80495 5.91852C2.99395 6.17927 2.9362 6.54386 2.67486 6.73286C1.72986 7.41769 1.16578 8.52194 1.16578 9.68686C1.16578 11.697 2.80145 13.3327 4.81161 13.3327C5.97711 13.3327 7.08136 12.7686 7.7662 11.8242C7.95461 11.5629 8.31978 11.5045 8.58053 11.6941L8.58111 11.6947ZM10.9693 4.43744C10.9693 3.62602 10.3159 2.96686 9.50745 2.95286V2.67636C9.50745 2.41852 9.29861 2.20969 9.04078 2.20969C8.78295 2.20969 8.57411 2.41852 8.57411 2.67636V2.94994H8.19378C7.77553 2.94994 7.43545 3.29002 7.43545 3.70827V7.20827C7.43545 7.62652 7.77553 7.96661 8.19378 7.96661H8.57411V8.22911C8.57411 8.48694 8.78295 8.69577 9.04078 8.69577C9.29861 8.69577 9.50745 8.48694 9.50745 8.22911V7.96661H9.59086C10.411 7.96661 11.0784 7.29927 11.0784 6.47911C11.0784 6.05502 10.9004 5.67236 10.6146 5.40052C10.8357 5.14094 10.9693 4.80436 10.9693 4.43744ZM8.36878 3.88327H9.48178C9.78745 3.88327 10.0359 4.13177 10.0359 4.43744C10.0359 4.74311 9.78745 4.99161 9.48178 4.99161H8.36878V3.88327ZM9.59028 7.03327H8.36878V5.92494H9.59028C9.89595 5.92494 10.1444 6.17344 10.1444 6.47911C10.1444 6.78477 9.89595 7.03327 9.59028 7.03327ZM13.6789 12.9395L12.3815 14.3168C12.2672 14.4381 12.112 14.4999 11.9569 14.4999C11.8134 14.4999 11.6693 14.4474 11.5567 14.3413C11.3222 14.1208 11.3117 13.7515 11.5322 13.5164L12.2544 12.7499H10.4979C10.1759 12.7499 9.91461 12.4886 9.91461 12.1666C9.91461 11.8446 10.1759 11.5833 10.4979 11.5833H12.2544L11.5316 10.8168C11.3111 10.5823 11.3216 10.213 11.5561 9.99194C11.79 9.77144 12.1593 9.78194 12.3809 10.0164L13.6899 11.4059C14.1035 11.8195 14.1035 12.5131 13.6777 12.9395H13.6789ZM0.307696 3.59394C-0.105887 3.17977 -0.105887 2.48619 0.319946 2.06036L1.6167 0.683106C1.83778 0.448023 2.20703 0.437523 2.44153 0.658606C2.67603 0.87969 2.68711 1.24894 2.46603 1.48344L1.74386 2.24994H3.4997C3.8217 2.24994 4.08303 2.51127 4.08303 2.83327C4.08303 3.15527 3.8217 3.41661 3.4997 3.41661H1.74328L2.46603 4.18311C2.68653 4.41761 2.67603 4.78686 2.44153 5.00794C2.32895 5.11411 2.18545 5.16661 2.04136 5.16661C1.8862 5.16661 1.73161 5.10536 1.6167 4.98344L0.307696 3.59394Z" fill="black"/>
</g>
<defs>
<clipPath id="clip0_3_1620">
<rect width="14" height="14" fill="white" transform="translate(0 0.5)"/>
</clipPath>
</defs>
</svg>
