<svg width="16" height="17" viewBox="0 0 16 17" fill="none" xmlns="http://www.w3.org/2000/svg">
<g clip-path="url(#clip0_28_2623)">
<path d="M4.66634 16.5C5.40272 16.5 5.99967 15.903 5.99967 15.1666C5.99967 14.4303 5.40272 13.8333 4.66634 13.8333C3.92996 13.8333 3.33301 14.4303 3.33301 15.1666C3.33301 15.903 3.92996 16.5 4.66634 16.5Z" fill="black"/>
<path d="M11.3333 16.5C12.0697 16.5 12.6667 15.9031 12.6667 15.1667C12.6667 14.4303 12.0697 13.8333 11.3333 13.8333C10.597 13.8333 10 14.4303 10 15.1667C10 15.9031 10.597 16.5 11.3333 16.5Z" fill="black"/>
<path d="M15.3337 2.5H14.0003V1.16667C14.0003 0.989856 13.9301 0.820286 13.8051 0.695262C13.68 0.570238 13.5105 0.5 13.3337 0.5C13.1568 0.5 12.9873 0.570238 12.8623 0.695262C12.7372 0.820286 12.667 0.989856 12.667 1.16667V2.5H11.3337C11.1568 2.5 10.9873 2.57024 10.8623 2.69526C10.7372 2.82029 10.667 2.98986 10.667 3.16667C10.667 3.34348 10.7372 3.51305 10.8623 3.63807C10.9873 3.7631 11.1568 3.83333 11.3337 3.83333H12.667V5.16667C12.667 5.34348 12.7372 5.51305 12.8623 5.63807C12.9873 5.7631 13.1568 5.83333 13.3337 5.83333C13.5105 5.83333 13.68 5.7631 13.8051 5.63807C13.9301 5.51305 14.0003 5.34348 14.0003 5.16667V3.83333H15.3337C15.5105 3.83333 15.68 3.7631 15.8051 3.63807C15.9301 3.51305 16.0003 3.34348 16.0003 3.16667C16.0003 2.98986 15.9301 2.82029 15.8051 2.69526C15.68 2.57024 15.5105 2.5 15.3337 2.5Z" fill="black"/>
<path d="M14.514 6.984C14.4278 6.96787 14.3393 6.96901 14.2535 6.98735C14.1678 7.0057 14.0865 7.04088 14.0144 7.09086C13.9424 7.14084 13.881 7.20463 13.8337 7.27852C13.7865 7.35242 13.7544 7.43495 13.7393 7.52133C13.6562 7.98277 13.4136 8.40033 13.0539 8.70106C12.6941 9.0018 12.2402 9.1666 11.7713 9.16667H3.612L2.98533 3.83333H8.66667C8.84348 3.83333 9.01305 3.7631 9.13807 3.63807C9.2631 3.51305 9.33333 3.34348 9.33333 3.16667C9.33333 2.98986 9.2631 2.82029 9.13807 2.69526C9.01305 2.57024 8.84348 2.5 8.66667 2.5H2.828L2.8 2.26533C2.74255 1.77907 2.50871 1.33077 2.14279 1.0054C1.77688 0.680036 1.30432 0.500209 0.814667 0.5L0.666667 0.5C0.489856 0.5 0.320286 0.570238 0.195262 0.695262C0.0702379 0.820286 0 0.989856 0 1.16667C0 1.34348 0.0702379 1.51305 0.195262 1.63807C0.320286 1.7631 0.489856 1.83333 0.666667 1.83333H0.814667C0.977956 1.83335 1.13556 1.8933 1.25758 2.00181C1.3796 2.11032 1.45756 2.25983 1.47667 2.422L2.394 10.222C2.48923 11.0332 2.87899 11.7812 3.48927 12.324C4.09956 12.8668 4.8879 13.1667 5.70467 13.1667H12.6667C12.8435 13.1667 13.013 13.0964 13.1381 12.9714C13.2631 12.8464 13.3333 12.6768 13.3333 12.5C13.3333 12.3232 13.2631 12.1536 13.1381 12.0286C13.013 11.9036 12.8435 11.8333 12.6667 11.8333H5.70467C5.29101 11.8334 4.88751 11.7052 4.54974 11.4664C4.21197 11.2276 3.95655 10.89 3.81867 10.5H11.7713C12.5528 10.5001 13.3094 10.2256 13.909 9.72455C14.5087 9.22348 14.9132 8.52768 15.052 7.75867C15.0676 7.67247 15.066 7.58405 15.0474 7.49847C15.0288 7.41288 14.9935 7.33179 14.9435 7.25985C14.8936 7.18791 14.8299 7.12652 14.7562 7.07919C14.6825 7.03185 14.6002 6.99951 14.514 6.984Z" fill="black"/>
</g>
<defs>
<clipPath id="clip0_28_2623">
<rect width="16" height="16" fill="white" transform="translate(0 0.5)"/>
</clipPath>
</defs>
</svg>
