<svg width="16" height="17" viewBox="0 0 16 17" fill="none" xmlns="http://www.w3.org/2000/svg">
<g clip-path="url(#clip0_28_2628)">
<path d="M6 15.1667C6 15.9 5.4 16.5 4.66667 16.5C3.93333 16.5 3.33333 15.9 3.33333 15.1667C3.33333 14.4333 3.93333 13.8333 4.66667 13.8333C5.4 13.8333 6 14.4333 6 15.1667ZM11.3333 13.8333C10.6 13.8333 10 14.4333 10 15.1667C10 15.9 10.6 16.5 11.3333 16.5C12.0667 16.5 12.6667 15.9 12.6667 15.1667C12.6667 14.4333 12.0667 13.8333 11.3333 13.8333ZM15.3333 2.50001H11.3333C10.9667 2.50001 10.6667 2.80001 10.6667 3.16668C10.6667 3.53335 10.9667 3.83335 11.3333 3.83335H15.3333C15.7 3.83335 16 3.53335 16 3.16668C16 2.80001 15.7 2.50001 15.3333 2.50001ZM14.8 5.84668C14.4333 5.77335 14.0867 6.00668 14.0133 6.36668L13.7733 7.55335C13.5867 8.48668 12.76 9.16002 11.8133 9.16002H3.61333L2.98667 3.82668H8C8.36667 3.82668 8.66667 3.52668 8.66667 3.16001C8.66667 2.79335 8.36667 2.49335 8 2.49335H2.82667L2.8 2.26001C2.68 1.25335 1.82667 0.493347 0.813333 0.493347H0.666667C0.3 0.500014 0 0.800014 0 1.16668C0 1.53335 0.3 1.83335 0.666667 1.83335H0.813333C1.15333 1.83335 1.43333 2.08668 1.47333 2.42001L2.39333 10.22C2.59333 11.9 4.01333 13.1667 5.70667 13.1667H12.6667C13.0333 13.1667 13.3333 12.8667 13.3333 12.5C13.3333 12.1333 13.0333 11.8333 12.6667 11.8333H5.70667C4.84667 11.8333 4.1 11.2867 3.82 10.5H11.8133C13.4 10.5 14.7733 9.37335 15.08 7.82001L15.32 6.63335C15.3933 6.27335 15.16 5.92001 14.8 5.84668Z" fill="#757575"/>
</g>
<defs>
<clipPath id="clip0_28_2628">
<rect width="16" height="16" fill="white" transform="translate(0 0.5)"/>
</clipPath>
</defs>
</svg>
