<svg width="14" height="15" viewBox="0 0 14 15" fill="none" xmlns="http://www.w3.org/2000/svg">
<g clip-path="url(#clip0_3_1623)">
<path d="M9.625 0.5C7.1715 0.5 5.25 1.65325 5.25 3.125V4.63408C4.96825 4.60083 4.67542 4.58333 4.375 4.58333C1.9215 4.58333 0 5.73658 0 7.20833V11.875C0 13.3467 1.9215 14.5 4.375 14.5C6.36242 14.5 8.001 13.7434 8.55167 12.6736C8.9005 12.7243 9.25983 12.75 9.625 12.75C12.0785 12.75 14 11.5967 14 10.125V3.125C14 1.65325 12.0785 0.5 9.625 0.5ZM12.8333 7.79167C12.8333 8.48 11.4613 9.25 9.625 9.25C9.32633 9.25 9.0335 9.22958 8.75 9.18992V8.03258C9.03583 8.06583 9.32867 8.08333 9.625 8.08333C10.9048 8.08333 12.04 7.7695 12.8333 7.26025V7.79167ZM1.16667 9.01025C1.96 9.5195 3.09517 9.83333 4.375 9.83333C5.65483 9.83333 6.79 9.5195 7.58333 9.01025V9.54167C7.58333 10.23 6.21133 11 4.375 11C2.53867 11 1.16667 10.23 1.16667 9.54167V9.01025ZM12.8333 5.45833C12.8333 6.14667 11.4613 6.91667 9.625 6.91667C9.31292 6.91667 9.00667 6.8945 8.7115 6.85133C8.59892 6.33392 8.24483 5.869 7.71633 5.49625C8.29033 5.65958 8.93667 5.75 9.625 5.75C10.9048 5.75 12.04 5.43617 12.8333 4.92692V5.45833ZM9.625 1.66667C11.4613 1.66667 12.8333 2.43667 12.8333 3.125C12.8333 3.81333 11.4613 4.58333 9.625 4.58333C7.78867 4.58333 6.41667 3.81333 6.41667 3.125C6.41667 2.43667 7.78867 1.66667 9.625 1.66667ZM4.375 5.75C6.21133 5.75 7.58333 6.52 7.58333 7.20833C7.58333 7.89667 6.21133 8.66667 4.375 8.66667C2.53867 8.66667 1.16667 7.89667 1.16667 7.20833C1.16667 6.52 2.53867 5.75 4.375 5.75ZM4.375 13.3333C2.53867 13.3333 1.16667 12.5633 1.16667 11.875V11.3436C1.96 11.8528 3.09517 12.1667 4.375 12.1667C5.65483 12.1667 6.79 11.8528 7.58333 11.3436V11.875C7.58333 12.5633 6.21133 13.3333 4.375 13.3333ZM9.625 11.5833C9.32633 11.5833 9.0335 11.5629 8.75 11.5232V10.3659C9.03583 10.3992 9.32867 10.4167 9.625 10.4167C10.9048 10.4167 12.04 10.1028 12.8333 9.59358V10.125C12.8333 10.8133 11.4613 11.5833 9.625 11.5833Z" fill="#9DC21B"/>
</g>
<defs>
<clipPath id="clip0_3_1623">
<rect width="14" height="14" fill="white" transform="translate(0 0.5)"/>
</clipPath>
</defs>
</svg>
